<svg xmlns="http://www.w3.org/2000/svg" width="478" height="424.5" viewBox="0 0 478 424.5"><g transform="translate(-570 -211)"><path d="M10,0,20,61H0Z" transform="translate(753 383) rotate(180)" fill="#7e7e7e"/><path d="M10,0,20,61H0Z" transform="translate(753 404) rotate(-90)" fill="#7e7e7e"/><path d="M10,0,20,61H0Z" transform="translate(733 405)" fill="#7e7e7e"/><path d="M10,0,20,61H0Z" transform="translate(733 384) rotate(90)" fill="#7e7e7e"/><path d="M10,0,20,61H0Z" transform="translate(738.728 409.224) rotate(-30)" fill="#7e7e7e"/><path d="M10,0,20,61H0Z" transform="translate(728.728 390.728) rotate(60)" fill="#7e7e7e"/><path d="M10,0,20,61H0Z" transform="translate(746.496 408.048) rotate(-60)" fill="#7e7e7e"/><path d="M10,0,20,61H0Z" transform="translate(746.496 380.728) rotate(150)" fill="#7e7e7e"/><path d="M10,0,20,61H0Z" transform="translate(738.728 381.904) rotate(120)" fill="#7e7e7e"/><path d="M10,0,20,61H0Z" transform="translate(756.496 399.224) rotate(-120)" fill="#7e7e7e"/><path d="M10,0,20,61H0Z" transform="translate(756.048 390.728) rotate(-150)" fill="#7e7e7e"/><path d="M10,0,20,61H0Z" transform="translate(729.176 399.224) rotate(30)" fill="#7e7e7e"/><path d="M125,5a120.914,120.914,0,0,0-24.189,2.438A119.954,119.954,0,0,0,7.439,100.809a121.219,121.219,0,0,0,0,48.379A119.954,119.954,0,0,0,100.81,242.56a121.219,121.219,0,0,0,48.379,0,119.954,119.954,0,0,0,93.372-93.371,121.219,121.219,0,0,0,0-48.379A119.954,119.954,0,0,0,149.19,7.438,120.914,120.914,0,0,0,125,5m0-5A125,125,0,1,1,0,125,125,125,0,0,1,125,0Z" transform="translate(618 269)" fill="#b2b2b2"/><path d="M75,5a69.88,69.88,0,1,0,27.247,5.5A69.65,69.65,0,0,0,75,5m0-5A75,75,0,1,1,0,75,75,75,0,0,1,75,0Z" transform="translate(668 319)" fill="#b2b2b2"/><path d="M15,5A10,10,0,1,0,25,15,10,10,0,0,0,15,5m0-5A15,15,0,1,1,0,15,15,15,0,0,1,15,0Z" transform="translate(728 379)" fill="#b2b2b2"/><path d="M188.5,2.5H0A2.5,2.5,0,0,1-2.5,0,2.5,2.5,0,0,1,0-2.5H188.5A2.5,2.5,0,0,1,191,0,2.5,2.5,0,0,1,188.5,2.5Z" transform="translate(741 271.5)" fill="#b2b2b2"/><path d="M65,2.5H0A2.5,2.5,0,0,1-2.5,0,2.5,2.5,0,0,1,0-2.5H65A2.5,2.5,0,0,1,67.5,0,2.5,2.5,0,0,1,65,2.5Z" transform="translate(864 375.314)" fill="#b2b2b2"/><circle cx="7.5" cy="7.5" r="7.5" transform="translate(736 290)" fill="#69617b"/><circle cx="7.5" cy="7.5" r="7.5" transform="translate(739 480)" fill="#69617b"/><circle cx="7.5" cy="7.5" r="7.5" transform="translate(832 387)" fill="#69617b"/><circle cx="7.5" cy="7.5" r="7.5" transform="translate(639 387)" fill="#69617b"/><circle cx="7.5" cy="7.5" r="7.5" transform="translate(665 320)" fill="#69617b"/><circle cx="7.5" cy="7.5" r="7.5" transform="translate(807 455)" fill="#69617b"/><circle cx="7.5" cy="7.5" r="7.5" transform="translate(668 459)" fill="#69617b"/><circle cx="7.5" cy="7.5" r="7.5" transform="translate(811 320)" fill="#69617b"/><path d="M23.27-28.795h-9.3V0H10.2V-28.795H.921v-3.414H23.27ZM51.885-13.027Q51.885.539,39.644.539q-11.725,0-11.725-13.05v-19.7h3.773v19.451q0,9.905,8.355,9.905,8.063,0,8.063-9.568V-32.209h3.773ZM83.016,0H78.523L73.133-9.029A19.665,19.665,0,0,0,71.7-11.174a8.2,8.2,0,0,0-1.426-1.449,4.94,4.94,0,0,0-1.572-.82,6.465,6.465,0,0,0-1.9-.258H63.7V0H59.926V-32.209h9.613a13.7,13.7,0,0,1,3.9.528,8.719,8.719,0,0,1,3.1,1.606,7.463,7.463,0,0,1,2.055,2.684,8.9,8.9,0,0,1,.741,3.762,9.059,9.059,0,0,1-.505,3.088,8.066,8.066,0,0,1-1.437,2.5,8.714,8.714,0,0,1-2.246,1.875,11.467,11.467,0,0,1-2.954,1.2v.09a6.793,6.793,0,0,1,1.4.82,7.725,7.725,0,0,1,1.134,1.089,14.429,14.429,0,0,1,1.067,1.426q.528.8,1.179,1.853ZM63.7-28.795v11.68H68.82a7.767,7.767,0,0,0,2.617-.427,6.058,6.058,0,0,0,2.078-1.224,5.551,5.551,0,0,0,1.37-1.954,6.542,6.542,0,0,0,.494-2.594,5.049,5.049,0,0,0-1.673-4.032,7.188,7.188,0,0,0-4.84-1.449ZM87.44,0V-32.209H96.6a10.016,10.016,0,0,1,6.626,2.044,6.606,6.606,0,0,1,2.448,5.323A7.833,7.833,0,0,1,104.2-20.08a7.994,7.994,0,0,1-4.088,2.875v.09a8.194,8.194,0,0,1,5.211,2.459,7.565,7.565,0,0,1,1.954,5.4,8.421,8.421,0,0,1-2.965,6.693A11.035,11.035,0,0,1,96.829,0Zm3.773-28.795v10.4h3.863a7.336,7.336,0,0,0,4.874-1.494,5.2,5.2,0,0,0,1.774-4.211q0-4.694-6.177-4.694Zm0,13.791v11.59h5.121a7.673,7.673,0,0,0,5.155-1.572A5.386,5.386,0,0,0,103.32-9.3Q103.32-15,95.549-15ZM126.792.539A14.138,14.138,0,0,1,115.82-3.976Q111.7-8.49,111.7-15.723q0-7.771,4.2-12.4t11.433-4.627a13.82,13.82,0,0,1,10.748,4.492q4.077,4.492,4.077,11.747,0,7.884-4.178,12.466T126.792.539Zm.27-29.873a10.384,10.384,0,0,0-8.243,3.661,14.173,14.173,0,0,0-3.167,9.613q0,5.952,3.088,9.58a10.072,10.072,0,0,0,8.052,3.627,10.575,10.575,0,0,0,8.355-3.459q3.055-3.459,3.055-9.681,0-6.379-2.965-9.86A10.166,10.166,0,0,0,127.062-29.334Z" transform="translate(860 339)" fill="#69617b"/><path d="M5,5V311H429V5H5M0,0H434V316H0Z" transform="translate(592 235)"/><path d="M27,5A22,22,0,0,0,5,27V333a22,22,0,0,0,22,22H451a22,22,0,0,0,22-22V27A22,22,0,0,0,451,5H27m0-5H451a27,27,0,0,1,27,27V333a27,27,0,0,1-27,27H27A27,27,0,0,1,0,333V27A27,27,0,0,1,27,0Z" transform="translate(570 211)"/><path d="M193.211,2.5H0A2.5,2.5,0,0,1-2.5,0,2.5,2.5,0,0,1,0-2.5H193.211a2.5,2.5,0,0,1,2.5,2.5A2.5,2.5,0,0,1,193.211,2.5Z" transform="translate(712.394 603)"/><path d="M273.106,2.5H0A2.5,2.5,0,0,1-2.5,0,2.5,2.5,0,0,1,0-2.5H273.106a2.5,2.5,0,0,1,2.5,2.5A2.5,2.5,0,0,1,273.106,2.5Z" transform="translate(672.447 633)"/><path d="M0,31.5a2.5,2.5,0,0,1-2.008-1.008,2.5,2.5,0,0,1,.514-3.5l39-29a2.5,2.5,0,0,1,3.5.514,2.5,2.5,0,0,1-.514,3.5l-39,29A2.489,2.489,0,0,1,0,31.5Z" transform="translate(672.5 603.5)"/><path d="M39,31.5a2.489,2.489,0,0,1-1.49-.494l-39-29a2.5,2.5,0,0,1-.514-3.5,2.5,2.5,0,0,1,3.5-.514l39,29A2.5,2.5,0,0,1,39,31.5Z" transform="translate(906.5 603.5)"/><rect width="34" height="53" rx="3" transform="translate(792 566)" fill="#fff"/><path d="M5,5V48H29V5H5M3,0H31a3,3,0,0,1,3,3V50a3,3,0,0,1-3,3H3a3,3,0,0,1-3-3V3A3,3,0,0,1,3,0Z" transform="translate(792 566)"/></g></svg>